<?xml version="1.0" encoding="utf-8"?>
<!-- Generator: Adobe Illustrator 26.1.0, SVG Export Plug-In . SVG Version: 6.00 Build 0)  -->
<svg version="1.1" id="Calque_1" xmlns="http://www.w3.org/2000/svg" xmlns:xlink="http://www.w3.org/1999/xlink" x="0px" y="0px"
	 viewBox="0 0 385.39 239.96" style="enable-background:new 0 0 385.39 239.96;" xml:space="preserve">
<style type="text/css">
	.st0{fill:#404040;stroke:#404040;stroke-width:6;}
</style>
<g>
	<path class="st0" d="M199.56,185.38c1.64-2.29,2.58-4.09,3.95-5.46c46.62-46.7,93.25-93.39,140.02-139.94
		c2.79-2.77,6.49-5.16,10.2-6.34c5.98-1.9,12.69,1.4,16.15,6.77c3.58,5.57,3.37,12.71-0.66,17.99c-1.19,1.56-2.64,2.92-4.03,4.31
		c-50.83,50.85-101.66,101.69-152.49,152.53c-9.7,9.7-17.64,9.66-27.42-0.12C134.21,164.05,83.11,113.01,32.18,61.81
		c-2.85-2.86-5.17-6.89-6.2-10.78c-1.62-6.1,2.07-12.61,7.61-15.76c5.56-3.17,12.51-2.69,17.56,1.34c1.53,1.22,2.88,2.69,4.27,4.08
		c46.43,46.42,92.85,92.85,139.27,139.29C195.95,181.25,197.1,182.65,199.56,185.38z"/>
</g>
</svg>
